<svg width="702" height="520" viewBox="0 0 702 520" fill="none" xmlns="http://www.w3.org/2000/svg">
<g opacity="0.78" filter="url(#filter0_d_33_1389)">
<path d="M37.0537 284.741L179.639 383.668L322.224 334.204L179.639 235.278L37.0537 284.741Z" fill="white" fill-opacity="0.27" shape-rendering="crispEdges"/>
<path d="M37.0537 284.741V383.668L179.639 482.595V383.668L37.0537 284.741Z" fill="white" fill-opacity="0.27" shape-rendering="crispEdges"/>
<path d="M179.639 482.595L322.224 433.132V334.204L179.639 383.668V482.595Z" fill="white" fill-opacity="0.27" shape-rendering="crispEdges"/>
<path d="M208.156 185.814L350.741 284.742V423.239L322.224 403.454V334.204L208.156 255.064" fill="white" fill-opacity="0.27" shape-rendering="crispEdges"/>
<path d="M350.741 423.239L493.326 373.776V235.278L350.741 284.742V423.239Z" fill="white" fill-opacity="0.27" shape-rendering="crispEdges"/>
<path d="M208.156 185.814L350.741 136.351L493.326 235.278L350.741 284.742L208.156 185.814Z" fill="white" fill-opacity="0.27" shape-rendering="crispEdges"/>
<path d="M379.258 156.136V86.8874L521.843 185.814V363.882L493.326 344.097V235.278L379.258 156.136Z" fill="white" fill-opacity="0.27" shape-rendering="crispEdges"/>
<path d="M379.258 86.8874L521.843 185.814L664.428 136.351L521.843 37.424L379.258 86.8874Z" fill="white" fill-opacity="0.27" shape-rendering="crispEdges"/>
<path d="M521.843 185.814L664.428 136.351V314.419L521.843 363.882V185.814Z" fill="white" fill-opacity="0.27" shape-rendering="crispEdges"/>
<path d="M37.0537 284.741L179.639 383.668M37.0537 284.741L179.639 235.278L322.224 334.204M37.0537 284.741V383.668L179.639 482.595M179.639 383.668L322.224 334.204M179.639 383.668V482.595M322.224 334.204V433.132L179.639 482.595M322.224 334.204L322.224 403.454L350.741 423.239M322.224 334.204L208.156 255.064V185.814M208.156 185.814L350.741 284.742M208.156 185.814L350.741 136.351L493.326 235.278M350.741 284.742V423.239M350.741 284.742L493.326 235.278M350.741 423.239L493.326 373.776V235.278M493.326 235.278V344.097L521.843 363.882M493.326 235.278L379.258 156.136V86.8874M379.258 86.8874L521.843 185.814M379.258 86.8874L521.843 37.424L664.428 136.351M521.843 185.814V363.882M521.843 185.814L664.428 136.351M521.843 363.882L664.428 314.419V136.351" stroke="url(#paint0_linear_33_1389)" stroke-width="4" stroke-linecap="round" stroke-linejoin="round" shape-rendering="crispEdges"/>
</g>
<defs>
<filter id="filter0_d_33_1389" x="0.0536804" y="0.423954" width="701.374" height="519.171" filterUnits="userSpaceOnUse" color-interpolation-filters="sRGB">
<feFlood flood-opacity="0" result="BackgroundImageFix"/>
<feColorMatrix in="SourceAlpha" type="matrix" values="0 0 0 0 0 0 0 0 0 0 0 0 0 0 0 0 0 0 127 0" result="hardAlpha"/>
<feOffset/>
<feGaussianBlur stdDeviation="17.5"/>
<feComposite in2="hardAlpha" operator="out"/>
<feColorMatrix type="matrix" values="0 0 0 0 1 0 0 0 0 1 0 0 0 0 1 0 0 0 0.48 0"/>
<feBlend mode="normal" in2="BackgroundImageFix" result="effect1_dropShadow_33_1389"/>
<feBlend mode="normal" in="SourceGraphic" in2="effect1_dropShadow_33_1389" result="shape"/>
</filter>
<linearGradient id="paint0_linear_33_1389" x1="-60.7243" y1="442.536" x2="712.296" y2="139.713" gradientUnits="userSpaceOnUse">
<stop/>
<stop offset="1" stop-color="#333333"/>
</linearGradient>
</defs>
</svg>
