<?xml version="1.0" encoding="UTF-8" standalone="no"?>
<!-- Created with Inkscape (http://www.inkscape.org/) -->

<svg
   width="113.3571mm"
   height="111.41975mm"
   viewBox="0 0 113.3571 111.41975"
   version="1.1"
   id="svg1"
   xml:space="preserve"
   inkscape:version="1.3 (0e150ed6c4, 2023-07-21)"
   sodipodi:docname="stockart.svg"
   xmlns:inkscape="http://www.inkscape.org/namespaces/inkscape"
   xmlns:sodipodi="http://sodipodi.sourceforge.net/DTD/sodipodi-0.dtd"
   xmlns="http://www.w3.org/2000/svg"
   xmlns:svg="http://www.w3.org/2000/svg"><sodipodi:namedview
     id="namedview1"
     pagecolor="#ffffff"
     bordercolor="#000000"
     borderopacity="0.25"
     inkscape:showpageshadow="2"
     inkscape:pageopacity="0.0"
     inkscape:pagecheckerboard="0"
     inkscape:deskcolor="#d1d1d1"
     inkscape:document-units="mm"
     inkscape:zoom="1.4805976"
     inkscape:cx="217.81745"
     inkscape:cy="223.22067"
     inkscape:window-width="1920"
     inkscape:window-height="1027"
     inkscape:window-x="-8"
     inkscape:window-y="-8"
     inkscape:window-maximized="1"
     inkscape:current-layer="g1" /><defs
     id="defs1" /><g
     inkscape:label="Camada 1"
     inkscape:groupmode="layer"
     id="layer1"
     transform="translate(-48.218561,-92.790126)"><g
       id="g1"
       transform="matrix(0.26458333,0,0,0.26458333,39.058686,81.299537)"><g
         id="Background_Simple">&#10;	<g
   id="g2">&#10;		<path
   style="fill:#93bfff;fill-opacity:1"
   d="m 332.505,63.829 c -21.819,12.483 -37.202,33.474 -55.859,50.32 -23.037,20.801 -51.585,35.442 -81.919,42.013 -24.955,5.406 -51.114,5.483 -75.206,13.943 -46.96,16.49 -79.195,65.433 -80.05,115.196 -0.855,49.763 27.498,97.97 69.106,125.282 14.129,9.275 29.689,16.366 45.958,20.945 30.605,8.614 63.053,8.232 94.676,4.94 54.623,-5.687 111.881,-36.703 146.305,-80.435 15.355,-19.507 28.317,-40.882 38.644,-63.453 16.957,-37.064 26.832,-77.41 28.52,-118.151 1.45,-35.008 -0.029,-73.8 -27.768,-99.304 C 407.236,49.678 365.062,45.202 332.505,63.829 Z"
   id="path1" />&#10;		<path
   style="opacity:0.7;fill:#c2ddff;fill-opacity:1"
   d="m 332.505,63.829 c -21.819,12.483 -37.202,33.474 -55.859,50.32 -23.037,20.801 -51.585,35.442 -81.919,42.013 -24.955,5.406 -51.114,5.483 -75.206,13.943 -46.96,16.49 -79.194997,65.433 -80.049997,115.196 -0.855,49.763 27.497997,97.97 69.105997,125.282 14.129,9.275 29.689,16.366 45.958,20.945 30.605,8.614 63.053,8.232 94.676,4.94 54.623,-5.687 111.881,-36.703 146.305,-80.435 15.355,-19.507 28.317,-40.882 38.644,-63.453 16.957,-37.064 26.832,-77.41 28.52,-118.151 1.45,-35.008 -0.029,-73.8 -27.768,-99.304 C 407.236,49.678 365.062,45.202 332.505,63.829 Z"
   id="path2" />&#10;	</g>&#10;</g><g
         id="Shadow">&#10;	<g
   id="g3">&#10;		<ellipse
   style="fill:#92b7e3;fill-opacity:1"
   cx="275.10101"
   cy="416.24701"
   rx="179.334"
   ry="48.296001"
   id="ellipse2" />&#10;		<ellipse
   style="opacity:0.5;fill:#b0dcff;fill-opacity:1"
   cx="275.10101"
   cy="416.24701"
   rx="179.334"
   ry="48.296001"
   id="ellipse3" />&#10;	</g>&#10;</g><g
         id="Window">&#10;	<g
   id="g41">&#10;		<path
   style="fill:#ffffff"
   d="m 305.913,77.248 v 118.184 c 0,4.944 -4.007,8.951 -8.951,8.951 H 86.131 c -4.944,0 -8.951,-4.007 -8.951,-8.951 V 77.248 c 0,-4.944 4.007,-8.951 8.951,-8.951 h 210.831 c 4.944,0 8.951,4.007 8.951,8.951 z"
   id="path3" />&#10;		<path
   style="fill:#92d3e3;fill-opacity:1"
   d="m 305.913,77.248 v 3.544 H 77.18 v -3.544 c 0,-4.944 4.007,-8.951 8.951,-8.951 h 210.831 c 4.944,0 8.951,4.007 8.951,8.951 z"
   id="path4" />&#10;		<path
   style="fill:none;stroke:#263238;stroke-linecap:round;stroke-linejoin:round;stroke-miterlimit:10"
   d="m 305.913,77.248 v 118.184 c 0,4.944 -4.007,8.951 -8.951,8.951 H 86.131 c -4.944,0 -8.951,-4.007 -8.951,-8.951 V 77.248 c 0,-4.944 4.007,-8.951 8.951,-8.951 h 210.831 c 4.944,0 8.951,4.007 8.951,8.951 z"
   id="path5" />&#10;		<path
   style="fill:none;stroke:#263238;stroke-linecap:round;stroke-linejoin:round;stroke-miterlimit:10"
   d="m 305.913,77.248 v 3.544 H 77.18 v -3.544 c 0,-4.944 4.007,-8.951 8.951,-8.951 h 210.831 c 4.944,0 8.951,4.007 8.951,8.951 z"
   id="path6" />&#10;		<path
   style="fill:#263238"
   d="m 102.867,74.544 c 0,1.262 -1.023,2.285 -2.285,2.285 -1.262,0 -2.285,-1.023 -2.285,-2.285 0,-1.262 1.023,-2.285 2.285,-2.285 1.262,0 2.285,1.023 2.285,2.285 z"
   id="path7" />&#10;		<path
   style="fill:#263238"
   d="m 114.818,74.544 c 0,1.262 -1.023,2.285 -2.285,2.285 -1.262,0 -2.285,-1.023 -2.285,-2.285 0,-1.262 1.023,-2.285 2.285,-2.285 1.262,0 2.285,1.023 2.285,2.285 z"
   id="path8" />&#10;		<circle
   style="fill:#263238"
   cx="124.484"
   cy="74.543999"
   r="2.2850001"
   id="circle8" />&#10;		<g
   id="g14">&#10;			<path
   style="fill:none;stroke:#263238;stroke-linecap:round;stroke-linejoin:round;stroke-miterlimit:10"
   d="M 159.103,129.186 H 94.435 c -2.038,0 -3.69,-1.652 -3.69,-3.69 V 94.387 c 0,-2.038 1.652,-3.69 3.69,-3.69 h 64.668 c 2.038,0 3.69,1.652 3.69,3.69 v 31.109 c 0,2.038 -1.652,3.69 -3.69,3.69 z"
   id="path9" />&#10;			<g
   id="g13">&#10;				&#10;					<line
   style="fill:none;stroke:#263238;stroke-linecap:round;stroke-linejoin:round;stroke-miterlimit:10"
   x1="94.981003"
   y1="124.347"
   x2="157.45399"
   y2="124.347"
   id="line9" />&#10;				<rect
   x="99.619003"
   y="116.998"
   style="fill:#92d3e3;fill-opacity:1;stroke:#263238;stroke-miterlimit:10"
   width="7.2480001"
   height="7.2480001"
   id="rect9" />&#10;				<rect
   x="110.23"
   y="107.468"
   style="fill:#92d3e3;fill-opacity:1;stroke:#263238;stroke-miterlimit:10"
   width="7.2480001"
   height="16.879"
   id="rect10" />&#10;				<rect
   x="122.181"
   y="110.371"
   style="fill:#92d3e3;fill-opacity:1;stroke:#263238;stroke-miterlimit:10"
   width="7.2480001"
   height="14.146"
   id="rect11" />&#10;				<rect
   x="134.73599"
   y="96.281998"
   style="fill:#92d3e3;fill-opacity:1;stroke:#263238;stroke-miterlimit:10"
   width="7.2480001"
   height="27.750999"
   id="rect12" />&#10;				<rect
   x="147.28999"
   y="96.495003"
   style="fill:#92d3e3;fill-opacity:1;stroke:#263238;stroke-miterlimit:10"
   width="7.2480001"
   height="27.750999"
   id="rect13" />&#10;			</g>&#10;		</g>&#10;		<g
   id="g16">&#10;			<circle
   style="fill:#92d3e3;fill-opacity:1;stroke:#263238;stroke-miterlimit:10"
   cx="252.11501"
   cy="110.91"
   r="20.27"
   id="circle14" />&#10;			<g
   id="g15">&#10;				<path
   style="fill:#263238"
   d="m 253.776,123.555 v 2.076 h -3.397 v -2.076 c -2.869,-0.717 -4.718,-3.133 -4.718,-6.304 v -0.944 l 3.85,-0.415 v 0.981 c 0,1.925 0.981,3.095 2.567,3.095 1.585,0 2.567,-0.981 2.567,-2.529 0,-1.85 -1.736,-3.435 -3.775,-5.134 -2.416,-2 -4.832,-4.379 -4.832,-7.738 0,-3.284 1.585,-5.624 4.341,-6.304 v -2.076 h 3.397 v 2.076 c 2.793,0.642 4.416,2.982 4.416,6.341 v 0.679 l -3.85,0.415 v -0.755 c 0,-2.038 -0.793,-3.095 -2.189,-3.095 -1.396,0 -2.189,0.868 -2.189,2.529 0,1.85 1.774,3.397 3.775,5.134 2.378,2.038 4.831,4.379 4.831,7.738 0,3.21 -1.888,5.626 -4.794,6.306 z"
   id="path14" />&#10;			</g>&#10;		</g>&#10;		<g
   id="g40">&#10;			<g
   id="g19">&#10;				&#10;					<line
   style="fill:none;stroke:#263238;stroke-linecap:round;stroke-linejoin:round;stroke-miterlimit:10"
   x1="89.057999"
   y1="148.854"
   x2="94.981003"
   y2="148.854"
   id="line16" />&#10;				&#10;					<line
   style="fill:none;stroke:#263238;stroke-linecap:round;stroke-linejoin:round;stroke-miterlimit:10"
   x1="89.057999"
   y1="160.295"
   x2="94.981003"
   y2="160.295"
   id="line17" />&#10;				&#10;					<line
   style="fill:none;stroke:#263238;stroke-linecap:round;stroke-linejoin:round;stroke-miterlimit:10"
   x1="89.057999"
   y1="171.73599"
   x2="94.981003"
   y2="171.73599"
   id="line18" />&#10;				&#10;					<line
   style="fill:none;stroke:#263238;stroke-linecap:round;stroke-linejoin:round;stroke-miterlimit:10"
   x1="89.057999"
   y1="183.177"
   x2="94.981003"
   y2="183.177"
   id="line19" />&#10;			</g>&#10;			<g
   id="g37">&#10;				&#10;					<line
   style="fill:none;stroke:#263238;stroke-linecap:round;stroke-linejoin:round;stroke-miterlimit:10"
   x1="108.027"
   y1="191.82401"
   x2="108.027"
   y2="187.22501"
   id="line20" />&#10;				&#10;					<line
   style="fill:none;stroke:#263238;stroke-linecap:round;stroke-linejoin:round;stroke-miterlimit:10"
   x1="117.41"
   y1="191.82401"
   x2="117.41"
   y2="187.22501"
   id="line21" />&#10;				&#10;					<line
   style="fill:none;stroke:#263238;stroke-linecap:round;stroke-linejoin:round;stroke-miterlimit:10"
   x1="126.793"
   y1="191.82401"
   x2="126.793"
   y2="187.22501"
   id="line22" />&#10;				&#10;					<line
   style="fill:none;stroke:#263238;stroke-linecap:round;stroke-linejoin:round;stroke-miterlimit:10"
   x1="136.175"
   y1="191.82401"
   x2="136.175"
   y2="187.22501"
   id="line23" />&#10;				&#10;					<line
   style="fill:none;stroke:#263238;stroke-linecap:round;stroke-linejoin:round;stroke-miterlimit:10"
   x1="145.558"
   y1="191.82401"
   x2="145.558"
   y2="187.22501"
   id="line24" />&#10;				&#10;					<line
   style="fill:none;stroke:#263238;stroke-linecap:round;stroke-linejoin:round;stroke-miterlimit:10"
   x1="154.94"
   y1="191.82401"
   x2="154.94"
   y2="187.22501"
   id="line25" />&#10;				&#10;					<line
   style="fill:none;stroke:#263238;stroke-linecap:round;stroke-linejoin:round;stroke-miterlimit:10"
   x1="164.323"
   y1="191.82401"
   x2="164.323"
   y2="187.22501"
   id="line26" />&#10;				&#10;					<line
   style="fill:none;stroke:#263238;stroke-linecap:round;stroke-linejoin:round;stroke-miterlimit:10"
   x1="173.705"
   y1="191.82401"
   x2="173.705"
   y2="187.22501"
   id="line27" />&#10;				&#10;					<line
   style="fill:none;stroke:#263238;stroke-linecap:round;stroke-linejoin:round;stroke-miterlimit:10"
   x1="183.088"
   y1="191.82401"
   x2="183.088"
   y2="187.22501"
   id="line28" />&#10;				&#10;					<line
   style="fill:none;stroke:#263238;stroke-linecap:round;stroke-linejoin:round;stroke-miterlimit:10"
   x1="192.47"
   y1="191.82401"
   x2="192.47"
   y2="187.22501"
   id="line29" />&#10;				&#10;					<line
   style="fill:none;stroke:#263238;stroke-linecap:round;stroke-linejoin:round;stroke-miterlimit:10"
   x1="201.853"
   y1="191.82401"
   x2="201.853"
   y2="187.22501"
   id="line30" />&#10;				&#10;					<line
   style="fill:none;stroke:#263238;stroke-linecap:round;stroke-linejoin:round;stroke-miterlimit:10"
   x1="211.23599"
   y1="191.82401"
   x2="211.23599"
   y2="187.22501"
   id="line31" />&#10;				&#10;					<line
   style="fill:none;stroke:#263238;stroke-linecap:round;stroke-linejoin:round;stroke-miterlimit:10"
   x1="220.618"
   y1="191.82401"
   x2="220.618"
   y2="187.22501"
   id="line32" />&#10;				&#10;					<line
   style="fill:none;stroke:#263238;stroke-linecap:round;stroke-linejoin:round;stroke-miterlimit:10"
   x1="230.00101"
   y1="191.82401"
   x2="230.00101"
   y2="187.22501"
   id="line33" />&#10;				&#10;					<line
   style="fill:none;stroke:#263238;stroke-linecap:round;stroke-linejoin:round;stroke-miterlimit:10"
   x1="239.383"
   y1="191.82401"
   x2="239.383"
   y2="187.22501"
   id="line34" />&#10;				&#10;					<line
   style="fill:none;stroke:#263238;stroke-linecap:round;stroke-linejoin:round;stroke-miterlimit:10"
   x1="248.41"
   y1="191.82401"
   x2="248.41"
   y2="187.22501"
   id="line35" />&#10;				&#10;					<line
   style="fill:none;stroke:#263238;stroke-linecap:round;stroke-linejoin:round;stroke-miterlimit:10"
   x1="257.43701"
   y1="191.82401"
   x2="257.43701"
   y2="187.22501"
   id="line36" />&#10;				&#10;					<line
   style="fill:none;stroke:#263238;stroke-linecap:round;stroke-linejoin:round;stroke-miterlimit:10"
   x1="266.46399"
   y1="191.82401"
   x2="266.46399"
   y2="187.22501"
   id="line37" />&#10;			</g>&#10;			<path
   style="fill:none;stroke:#578fd4;stroke-linecap:round;stroke-linejoin:round;stroke-miterlimit:10;stroke-opacity:1"
   d="m 290.344,141.848 v 44.464 c 0,3.045 -3.1,5.511 -6.926,5.511 H 95.984 c -2.543,0 -4.771,-1.089 -5.969,-2.717 -0.605,-0.819 -0.956,-1.773 -0.956,-2.794 v -44.464 c 0,-3.045 3.1,-5.511 6.926,-5.511 H 283.42 c 3.824,0 6.924,2.466 6.924,5.511 z"
   id="path37" />&#10;			<g
   id="g39">&#10;				<g
   id="g38">&#10;					<path
   style="fill:#263238"
   d="m 233.3,55.742 -59.832,80.595 -22.883,30.822 -24.993,-15.917 -30.581,40.582 h -0.443 c -2.023,0 -3.796,-1.089 -4.75,-2.717 l 34.367,-45.611 24.973,15.897 17.111,-23.056 62.385,-84.034 z"
   id="path38" />&#10;				</g>&#10;				<polygon
   style="fill:#263238"
   points="218.117,56.764 240.114,43.429 234.029,66.489 230.153,55.821 "
   id="polygon38" />&#10;			</g>&#10;		</g>&#10;	</g>&#10;</g><g
         id="Floor">&#10;	<g
   id="g76">&#10;		<g
   id="g43">&#10;			<polyline
   style="fill:none;stroke:#263238;stroke-linecap:round;stroke-linejoin:round;stroke-miterlimit:10"
   points="     426.225,310.522 74.537,310.522 35.12,345.568    "
   id="polyline41" />&#10;			<g
   id="g42">&#10;				&#10;					<line
   style="fill:none;stroke:#263238;stroke-linecap:round;stroke-linejoin:round;stroke-miterlimit:10"
   x1="74.759003"
   y1="285.979"
   x2="74.759003"
   y2="217.827"
   id="line41" />&#10;				&#10;					<line
   style="fill:none;stroke:#263238;stroke-linecap:round;stroke-linejoin:round;stroke-miterlimit:10"
   x1="74.759003"
   y1="306.565"
   x2="74.759003"
   y2="293.383"
   id="line42" />&#10;			</g>&#10;		</g>&#10;		<g
   id="freepik--Plants--inject-120">&#10;			<path
   style="fill:#63b1e8;fill-opacity:1"
   d="m 405.056,144.722 c 0,0 0,-4.118 -5.769,-9.887 -5.769,-5.769 -9.469,-9.058 -9.469,-9.058 0,0 -2.884,9.469 2.466,15.237 3.938,4.067 8.21,7.796 12.771,11.148 v -7.44 z"
   id="path43" />&#10;			<path
   style="fill:#63b1e8;fill-opacity:1"
   d="m 396.689,170.446 c 0,0 0,-4.118 -5.769,-9.887 -5.769,-5.769 -9.468,-9.057 -9.468,-9.057 0,0 -2.885,9.469 2.466,15.238 3.94,4.064 8.212,7.793 12.771,11.148 z"
   id="path44" />&#10;			<path
   style="fill:#63b1e8;fill-opacity:1"
   d="m 404.694,151.738 c 0,0 0.432,-4.097 6.779,-9.225 6.347,-5.128 10.374,-8.005 10.374,-8.005 0,0 1.867,9.754 -4.069,14.889 -4.344,3.62 -8.984,6.869 -13.872,9.712 z"
   id="path45" />&#10;			<path
   style="fill:#63b1e8;fill-opacity:1"
   d="m 394.585,182.116 c 0,0 0.864,-4.027 7.706,-8.458 6.842,-4.431 11.148,-6.877 11.148,-6.877 0,0 0.836,9.866 -5.574,14.387 -4.7,3.14 -9.655,5.88 -14.813,8.193 z"
   id="path46" />&#10;			<path
   style="fill:#63b1e8;fill-opacity:1"
   d="m 396.487,215.232 c 0,0 0,-4.118 5.762,-9.88 5.762,-5.762 9.476,-9.057 9.476,-9.057 0,0 2.884,9.475 -2.473,15.237 -3.935,4.067 -8.204,7.796 -12.764,11.148 v -7.448 z"
   id="path47" />&#10;			<path
   style="fill:#63b1e8;fill-opacity:1"
   d="m 396.389,223.32 c 0,0 0.585,-4.076 -4.306,-10.604 -4.891,-6.528 -8.089,-10.319 -8.089,-10.319 0,0 -4.18,8.967 0.286,15.439 3.322,4.574 7.021,8.862 11.057,12.82 z"
   id="path48" />&#10;			<path
   style="fill:#63b1e8;fill-opacity:1"
   d="m 390.704,247.274 c 0,0 0,-4.118 5.762,-9.88 5.762,-5.762 9.475,-9.057 9.475,-9.057 0,0 2.884,9.475 -2.473,15.237 -3.934,4.067 -8.204,7.796 -12.764,11.148 z"
   id="path49" />&#10;			<path
   style="fill:#63b1e8;fill-opacity:1"
   d="m 394.55,268.998 c 0,0 -1.038,-3.985 3.087,-11.036 4.125,-7.051 6.87,-11.148 6.87,-11.148 0,0 5.184,8.437 1.47,15.37 -2.784,4.921 -5.974,9.601 -9.538,13.99 z"
   id="path50" />&#10;			<path
   style="fill:none;stroke:#263238;stroke-width:1.1775;stroke-linecap:round;stroke-linejoin:round"
   d="m 405.579,143.698 c -0.293,4.287 -0.821,8.555 -1.582,12.785 -2.278,11.775 -7.978,19.376 -10.256,30.008 -2.278,10.632 4.264,24.344 2.515,38.007 -1.749,13.663 -7.072,21.257 -5.574,30.377 1.498,9.12 9.496,33.805 9.496,33.805"
   id="path51" />&#10;			&#10;				<line
   style="fill:none;stroke:#263238;stroke-width:1.1775;stroke-linecap:round;stroke-linejoin:round"
   x1="404.638"
   y1="154.47701"
   x2="410.853"
   y2="149.70399"
   id="line51" />&#10;			&#10;				<line
   style="fill:none;stroke:#263238;stroke-width:1.1775;stroke-linecap:round;stroke-linejoin:round"
   x1="404.92401"
   y1="148.98599"
   x2="402.32501"
   y2="144.36"
   id="line52" />&#10;			<path
   style="fill:none;stroke:#263238;stroke-width:1.1775;stroke-linecap:round;stroke-linejoin:round"
   d="m 394.09,185.976 c 0,0 5.198,-3.902 10.548,-7.803"
   id="path52" />&#10;			<path
   style="fill:none;stroke:#263238;stroke-width:1.1775;stroke-linecap:round;stroke-linejoin:round"
   d="m 396.689,177.838 c 0,0 -4.334,-8.5 -9.246,-14.137"
   id="path53" />&#10;			<path
   style="fill:none;stroke:#263238;stroke-width:1.1775;stroke-linecap:round;stroke-linejoin:round"
   d="m 396.689,221.091 c 2.978,-5.473 6.733,-10.486 11.148,-14.882"
   id="path54" />&#10;			<path
   style="fill:none;stroke:#263238;stroke-width:1.1775;stroke-linecap:round;stroke-linejoin:round"
   d="m 395.678,226.874 c -1.58,-3.721 -3.465,-7.305 -5.637,-10.716 -3.038,-4.48 -3.484,-5.058 -3.484,-5.058"
   id="path55" />&#10;			<path
   style="fill:none;stroke:#263238;stroke-width:1.1775;stroke-linecap:round;stroke-linejoin:round"
   d="m 390.704,254.848 c 1.316,-3.273 2.882,-6.441 4.682,-9.476 1.801,-2.812 3.831,-5.471 6.068,-7.95"
   id="path56" />&#10;			<path
   style="fill:none;stroke:#263238;stroke-width:1.1775;stroke-linecap:round;stroke-linejoin:round"
   d="m 396.431,276.168 c 0,0 -0.606,-4.933 1.561,-9.12 2.167,-4.187 4.619,-9.685 5.637,-11.844"
   id="path57" />&#10;			<path
   style="fill:#63b1e8;fill-opacity:1"
   d="m 367.301,199.743 c 0,0 -0.453,-2.578 2.543,-6.821 2.996,-4.243 4.954,-6.723 4.954,-6.723 0,0 2.836,5.623 0.104,9.824 -2.029,2.972 -4.304,5.769 -6.8,8.361 z"
   id="path58" />&#10;			<path
   style="fill:#63b1e8;fill-opacity:1"
   d="m 375.341,214.967 c 0,0 -0.453,-2.585 2.536,-6.828 2.989,-4.243 4.961,-6.71 4.961,-6.71 0,0 2.836,5.63 0.105,9.824 -2.028,2.973 -4.303,5.77 -6.8,8.361 z"
   id="path59" />&#10;			<path
   style="fill:#63b1e8;fill-opacity:1"
   d="m 368.29,204.105 c 0,0 -0.697,-2.522 -5.253,-5.044 -4.557,-2.522 -7.378,-3.902 -7.378,-3.902 0,0 -0.112,6.27 4.18,8.904 3.119,1.794 6.382,3.325 9.754,4.577 z"
   id="path60" />&#10;			<path
   style="fill:#63b1e8;fill-opacity:1"
   d="m 377.926,222.053 c 0,0 -0.982,-2.432 -5.755,-4.466 -4.773,-2.034 -7.748,-3.093 -7.748,-3.093 0,0 0.55,6.271 5.079,8.41 3.289,1.458 6.694,2.64 10.179,3.532 z"
   id="path61" />&#10;			<path
   style="fill:#63b1e8;fill-opacity:1"
   d="m 380.329,243.031 c 0,0 -0.446,-2.585 -4.689,-5.574 -4.243,-2.989 -6.925,-4.654 -6.925,-4.654 0,0 -0.78,6.271 3.205,9.287 2.909,2.112 5.99,3.977 9.211,5.574 z"
   id="path62" />&#10;			<path
   style="fill:#63b1e8;fill-opacity:1"
   d="m 381.263,248.089 c 0,0 -0.808,-2.494 1.547,-7.114 2.355,-4.619 3.957,-7.35 3.957,-7.35 0,0 3.602,5.17 1.498,9.712 -1.597,3.229 -3.462,6.32 -5.574,9.239 z"
   id="path63" />&#10;			<path
   style="fill:#63b1e8;fill-opacity:1"
   d="m 388.502,268.922 c 0,0 0.3,-2.606 4.362,-5.832 4.062,-3.226 6.647,-5.037 6.647,-5.037 0,0 1.136,6.194 -2.668,9.455 -2.784,2.277 -5.753,4.319 -8.876,6.103 z"
   id="path64" />&#10;			<path
   style="fill:#63b1e8;fill-opacity:1"
   d="m 387.429,262.498 c 0,0 -0.446,-2.585 -4.689,-5.574 -4.243,-2.989 -6.918,-4.654 -6.918,-4.654 0,0 -0.78,6.271 3.198,9.287 2.911,2.113 5.994,3.977 9.218,5.574 z"
   id="path65" />&#10;			<path
   style="fill:#63b1e8;fill-opacity:1"
   d="m 387.373,276.537 c 0,0 0.223,-2.613 -3.121,-6.577 -3.344,-3.964 -5.518,-6.271 -5.518,-6.271 0,0 -2.341,5.853 0.746,9.796 2.279,2.789 4.787,5.383 7.497,7.755 z"
   id="path66" />&#10;			<path
   style="fill:none;stroke:#263238;stroke-width:1.1775;stroke-linecap:round;stroke-linejoin:round"
   d="m 366.855,199.137 c 0.649,2.659 1.444,5.281 2.383,7.852 2.703,7.135 7.1,11.28 9.685,17.704 2.585,6.424 0,15.725 2.55,24.1 2.55,8.375 6.744,12.541 6.779,18.45 0.035,5.908 -2.285,22.233 -2.285,22.233"
   id="path67" />&#10;			&#10;				<line
   style="fill:none;stroke:#263238;stroke-width:1.1775;stroke-linecap:round;stroke-linejoin:round"
   x1="368.617"
   y1="205.812"
   x2="364.207"
   y2="203.49899"
   id="line67" />&#10;			&#10;				<line
   style="fill:none;stroke:#263238;stroke-width:1.1775;stroke-linecap:round;stroke-linejoin:round"
   x1="367.84399"
   y1="202.405"
   x2="368.97299"
   y2="199.22099"
   id="line68" />&#10;			<path
   style="fill:none;stroke:#263238;stroke-width:1.1775;stroke-linecap:round;stroke-linejoin:round"
   d="m 378.657,224.421 c 0,0 -3.686,-1.881 -7.462,-3.748"
   id="path68" />&#10;			<path
   style="fill:none;stroke:#263238;stroke-width:1.1775;stroke-linecap:round;stroke-linejoin:round"
   d="m 376.142,219.642 c 1.083,-3.425 2.512,-6.73 4.264,-9.866"
   id="path69" />&#10;			<path
   style="fill:none;stroke:#263238;stroke-width:1.1775;stroke-linecap:round;stroke-linejoin:round"
   d="m 380.838,246.724 c -2.458,-3.11 -5.354,-5.846 -8.598,-8.124"
   id="path70" />&#10;			<path
   style="fill:none;stroke:#263238;stroke-width:1.1775;stroke-linecap:round;stroke-linejoin:round"
   d="m 382.099,250.242 c 0.585,-2.5 1.378,-4.947 2.369,-7.316 1.393,-3.142 1.63,-3.553 1.63,-3.553"
   id="path71" />&#10;			<path
   style="fill:none;stroke:#263238;stroke-width:1.1775;stroke-linecap:round;stroke-linejoin:round"
   d="m 388.056,271.701 c 0,0 2.919,-3.581 4.745,-4.926 1.096,-0.811 2.126,-1.708 3.079,-2.682"
   id="path72" />&#10;			<path
   style="fill:none;stroke:#263238;stroke-width:1.1775;stroke-linecap:round;stroke-linejoin:round"
   d="m 388.251,267.242 c -1.182,-1.909 -2.507,-3.726 -3.964,-5.435 -1.435,-1.567 -2.996,-3.014 -4.668,-4.327"
   id="path73" />&#10;			<path
   style="fill:none;stroke:#263238;stroke-width:1.1775;stroke-linecap:round;stroke-linejoin:round"
   d="m 386.976,281.24 c -0.146,-2 -0.824,-3.924 -1.965,-5.574 -1.818,-2.397 -3.957,-5.574 -4.821,-6.821"
   id="path74" />&#10;			<path
   style="fill:#263238"
   d="m 406.178,317.644 h -26.26 c -1.081,0 -1.958,-0.877 -1.958,-1.958 l -3.769,-29.061 h 37.714 l -3.769,29.061 c 0,1.081 -0.877,1.958 -1.958,1.958 z"
   id="path75" />&#10;			<path
   style="fill:#263238"
   d="m 411.571,291.544 h -37.38 c -1.621,0 -2.939,-1.306 -2.954,-2.926 v 0 c 0,-1.628 1.319,-2.947 2.947,-2.947 0.002,0 0.005,0 0.007,0 h 37.38 c 1.628,-0.004 2.95,1.313 2.954,2.94 0,0.002 0,0.005 0,0.007 v 0 c -0.015,1.621 -1.334,2.926 -2.954,2.926 z"
   id="path76" />&#10;		</g>&#10;	</g>&#10;</g><g
         id="Coins">&#10;	<g
   id="g97">&#10;		<g
   id="g88">&#10;			<path
   style="fill:#92d3e3;fill-opacity:1"
   d="m 327.298,175.315 c 0,17.228 -12.015,31.664 -28.131,35.369 -0.04,0.013 -0.066,0.013 -0.106,0.026 -0.953,0.212 -1.905,0.397 -2.885,0.543 -1.694,0.238 -3.427,0.37 -5.187,0.37 -20.06,0 -36.322,-16.262 -36.322,-36.309 0,-19.61 15.548,-35.594 34.985,-36.282 0.331,-0.027 0.675,-0.027 1.019,-0.027 0.106,-0.013 0.212,-0.013 0.318,-0.013 0.119,0 0.251,0 0.37,0.013 5.055,0.04 9.858,1.125 14.224,3.057 12.783,5.611 21.715,18.393 21.715,33.253 z"
   id="path77" />&#10;			<path
   style="opacity:0.4;fill:#ffffff"
   d="m 305.584,142.063 c -41.932,-2.183 -42.131,44.367 -42.131,44.367 0,0 -6.404,-15.19 4.049,-32.021 5.835,-9.408 16.011,-13.563 23.857,-15.402 5.055,0.039 9.858,1.124 14.225,3.056 z"
   id="path78" />&#10;			<path
   style="fill:none;stroke:#263238;stroke-linecap:round;stroke-linejoin:round;stroke-miterlimit:10"
   d="m 327.298,175.315 c 0,17.268 -12.068,31.73 -28.237,35.395 -2.593,0.596 -5.293,0.913 -8.071,0.913 -20.06,0 -36.322,-16.262 -36.322,-36.309 0,-19.61 15.548,-35.594 34.985,-36.282 0.437,-0.026 0.887,-0.04 1.336,-0.04 20.046,0.001 36.309,16.263 36.309,36.323 z"
   id="path79" />&#10;			<path
   style="fill:none;stroke:#263238;stroke-linecap:round;stroke-linejoin:round;stroke-miterlimit:10"
   d="m 327.298,175.315 c 0,17.268 -12.068,31.73 -28.237,35.395 -0.437,0.027 -0.886,0.04 -1.336,0.04 -20.06,0 -36.309,-16.262 -36.309,-36.322 0,-17.268 12.068,-31.73 28.237,-35.396 0.437,-0.026 0.887,-0.04 1.336,-0.04 20.046,0.001 36.309,16.263 36.309,36.323 z"
   id="path80" />&#10;			<g
   id="g82">&#10;				<path
   style="fill:none;stroke:#263238;stroke-miterlimit:10"
   d="m 303.5,198.04 0.941,3.835 -6.276,1.539 -0.941,-3.835 c -5.625,-0.025 -10.136,-3.65 -11.573,-9.507 l -0.427,-1.743 6.924,-2.512 0.444,1.813 c 0.872,3.557 3.215,5.274 6.144,4.555 2.928,-0.719 4.297,-2.976 3.596,-5.835 -0.839,-3.415 -4.764,-5.558 -9.3,-7.772 -5.369,-2.601 -10.909,-5.9 -12.431,-12.105 -1.487,-6.067 0.38,-11.109 5.164,-13.612 l -0.941,-3.835 6.275,-1.539 0.941,3.835 c 5.451,-0.081 9.509,3.508 11.031,9.713 l 0.308,1.255 -6.924,2.511 -0.342,-1.394 c -0.924,-3.766 -2.867,-5.359 -5.447,-4.726 -2.579,0.633 -3.652,2.595 -2.898,5.664 0.837,3.415 4.816,5.471 9.298,7.772 5.317,2.69 10.91,5.901 12.432,12.106 1.455,5.926 -0.937,11.244 -5.998,13.817 z"
   id="path81" />&#10;				<path
   style="opacity:0.3"
   d="m 303.5,198.04 0.941,3.835 -6.276,1.539 -0.941,-3.835 c -5.625,-0.025 -10.136,-3.65 -11.573,-9.507 l -0.427,-1.743 6.924,-2.512 0.444,1.813 c 0.872,3.557 3.215,5.274 6.144,4.555 2.928,-0.719 4.297,-2.976 3.596,-5.835 -0.839,-3.415 -4.764,-5.558 -9.3,-7.772 -5.369,-2.601 -10.909,-5.9 -12.431,-12.105 -1.487,-6.067 0.38,-11.109 5.164,-13.612 l -0.941,-3.835 6.275,-1.539 0.941,3.835 c 5.451,-0.081 9.509,3.508 11.031,9.713 l 0.308,1.255 -6.924,2.511 -0.342,-1.394 c -0.924,-3.766 -2.867,-5.359 -5.447,-4.726 -2.579,0.633 -3.652,2.595 -2.898,5.664 0.837,3.415 4.816,5.471 9.298,7.772 5.317,2.69 10.91,5.901 12.432,12.106 1.455,5.926 -0.937,11.244 -5.998,13.817 z"
   id="path82" />&#10;			</g>&#10;			&#10;				<line
   style="fill:none;stroke:#263238;stroke-linecap:round;stroke-linejoin:round;stroke-miterlimit:10"
   x1="272.43201"
   y1="206.52901"
   x2="280.103"
   y2="206.177"
   id="line82" />&#10;			&#10;				<line
   style="fill:none;stroke:#263238;stroke-linecap:round;stroke-linejoin:round;stroke-miterlimit:10"
   x1="268.73999"
   y1="203.98199"
   x2="275.435"
   y2="203.414"
   id="line83" />&#10;			&#10;				<line
   style="fill:none;stroke:#263238;stroke-linecap:round;stroke-linejoin:round;stroke-miterlimit:10"
   x1="265.737"
   y1="201.289"
   x2="272.43201"
   y2="200.722"
   id="line84" />&#10;			&#10;				<line
   style="fill:none;stroke:#263238;stroke-linecap:round;stroke-linejoin:round;stroke-miterlimit:10"
   x1="264.82199"
   y1="150.13"
   x2="270.55399"
   y2="150.13"
   id="line85" />&#10;			&#10;				<line
   style="fill:none;stroke:#263238;stroke-linecap:round;stroke-linejoin:round;stroke-miterlimit:10"
   x1="267.65201"
   y1="147.48599"
   x2="273.35901"
   y2="147.22701"
   id="line86" />&#10;			&#10;				<line
   style="fill:none;stroke:#263238;stroke-linecap:round;stroke-linejoin:round;stroke-miterlimit:10"
   x1="271.22601"
   y1="144.842"
   x2="277.24899"
   y2="144.27499"
   id="line87" />&#10;			<path
   style="opacity:0.3"
   d="m 299.166,210.684 c -0.04,0.013 -0.066,0.013 -0.106,0.026 -2.593,0.596 -5.293,0.913 -8.071,0.913 -20.06,0 -36.322,-16.262 -36.322,-36.309 0,-19.61 15.548,-35.594 34.985,-36.282 0.331,-0.027 0.675,-0.027 1.019,-0.027 -8.852,2.792 -23.699,9.924 -27.668,24.797 -5.637,21.119 7.04,45.109 36.163,46.882 z"
   id="path87" />&#10;			<path
   style="opacity:0.1"
   d="m 327.298,175.315 c 0,17.228 -12.015,31.664 -28.131,35.369 -0.04,0.013 -0.066,0.013 -0.106,0.026 -0.953,0.212 -1.905,0.397 -2.885,0.543 l 9.408,-69.19 c 12.782,5.61 21.714,18.392 21.714,33.252 z"
   id="path88" />&#10;		</g>&#10;		<g
   id="g96">&#10;			<path
   style="fill:#92c9e3;fill-opacity:1"
   d="m 347.9,118.153 c -6.034,8.535 -17.043,11.472 -26.305,7.635 -0.04,-0.013 -0.093,-0.04 -0.132,-0.053 -0.688,-0.291 -1.376,-0.622 -2.051,-0.992 -0.728,-0.397 -1.429,-0.834 -2.117,-1.323 -9.911,-7 -12.266,-20.708 -5.266,-30.619 6.735,-9.527 19.663,-12.068 29.454,-6.007 0.172,0.093 0.331,0.199 0.49,0.304 0.225,0.132 0.45,0.291 0.675,0.45 0.344,0.238 0.675,0.49 0.992,0.754 9.05,7.171 11.021,20.297 4.26,29.851 z"
   id="path89" />&#10;			<path
   style="opacity:0.4;fill:#ffffff"
   d="m 314.762,118.452 c 0,0 -3.596,-10.57 1.18,-18.348 5.993,-9.758 15.188,-14.202 27.696,-11.802 0,0 -6.783,-4.578 -18.132,-1.329 -11.347,3.248 -17.436,18.863 -10.744,31.479 z"
   id="path90" />&#10;			<path
   style="fill:none;stroke:#263238;stroke-linecap:round;stroke-linejoin:round;stroke-miterlimit:10"
   d="m 347.897,118.158 c -6.028,8.529 -17.038,11.46 -26.304,7.626 -1.489,-0.611 -2.933,-1.397 -4.306,-2.367 -9.908,-7.003 -12.264,-20.713 -5.266,-30.614 6.846,-9.686 20.106,-12.154 29.947,-5.708 0.225,0.139 0.452,0.29 0.674,0.447 9.903,6.998 12.258,20.708 5.255,30.616 z"
   id="path91" />&#10;			<path
   style="fill:none;stroke:#263238;stroke-linecap:round;stroke-linejoin:round;stroke-miterlimit:10"
   d="m 347.897,118.158 c -6.028,8.529 -17.038,11.46 -26.304,7.626 -0.225,-0.139 -0.452,-0.29 -0.674,-0.447 -9.908,-7.003 -12.257,-20.708 -5.254,-30.616 6.028,-8.529 17.038,-11.46 26.304,-7.626 0.225,0.139 0.452,0.29 0.674,0.447 9.902,6.998 12.257,20.708 5.254,30.616 z"
   id="path92" />&#10;			<g
   id="g94">&#10;				<path
   style="fill:none;stroke:#263238;stroke-miterlimit:10"
   d="m 328.209,121.075 -0.874,2.223 -3.637,-1.431 0.874,-2.223 c -2.77,-1.976 -3.732,-5.341 -2.397,-8.736 l 0.398,-1.01 4.297,1.176 -0.413,1.051 c -0.811,2.062 -0.253,3.727 1.445,4.395 1.697,0.667 3.161,0.03 3.813,-1.627 0.778,-1.98 -0.413,-4.409 -1.88,-7.086 -1.744,-3.159 -3.329,-6.722 -1.914,-10.319 1.383,-3.516 4.066,-5.355 7.302,-4.921 l 0.874,-2.223 3.637,1.43 -0.874,2.223 c 2.72,1.863 3.473,5.052 2.058,8.649 l -0.286,0.727 -4.297,-1.176 0.318,-0.808 c 0.858,-2.182 0.454,-3.648 -1.041,-4.235 -1.495,-0.588 -2.71,0.007 -3.409,1.786 -0.779,1.979 0.469,4.384 1.88,7.085 1.688,3.185 3.329,6.724 1.914,10.32 -1.351,3.435 -4.389,5.227 -7.788,4.73 z"
   id="path93" />&#10;				<path
   style="opacity:0.3"
   d="m 328.209,121.075 -0.874,2.223 -3.637,-1.431 0.874,-2.223 c -2.77,-1.976 -3.732,-5.341 -2.397,-8.736 l 0.398,-1.01 4.297,1.176 -0.413,1.051 c -0.811,2.062 -0.253,3.727 1.445,4.395 1.697,0.667 3.161,0.03 3.813,-1.627 0.778,-1.98 -0.413,-4.409 -1.88,-7.086 -1.744,-3.159 -3.329,-6.722 -1.914,-10.319 1.383,-3.516 4.066,-5.355 7.302,-4.921 l 0.874,-2.223 3.637,1.43 -0.874,2.223 c 2.72,1.863 3.473,5.052 2.058,8.649 l -0.286,0.727 -4.297,-1.176 0.318,-0.808 c 0.858,-2.182 0.454,-3.648 -1.041,-4.235 -1.495,-0.588 -2.71,0.007 -3.409,1.786 -0.779,1.979 0.469,4.384 1.88,7.085 1.688,3.185 3.329,6.724 1.914,10.32 -1.351,3.435 -4.389,5.227 -7.788,4.73 z"
   id="path94" />&#10;			</g>&#10;			<path
   style="opacity:0.3"
   d="m 341.482,86.793 c -6.034,-1.072 -13.602,-1.667 -17.704,0.966 -7.529,4.83 -12.213,10.916 -12.147,20.787 0.066,9.871 9.289,16.791 9.289,16.791 l 0.542,0.397 c -1.442,-0.609 -2.845,-1.376 -4.168,-2.316 -9.911,-7 -12.266,-20.708 -5.266,-30.619 6.735,-9.526 19.663,-12.066 29.454,-6.006 z"
   id="path95" />&#10;			<path
   style="opacity:0.1"
   d="m 347.9,118.153 c -6.034,8.535 -17.043,11.472 -26.305,7.635 -0.04,-0.013 -0.093,-0.04 -0.132,-0.053 -0.688,-0.291 -1.376,-0.622 -2.051,-0.992 L 343.64,88.302 c 9.05,7.171 11.021,20.297 4.26,29.851 z"
   id="path96" />&#10;		</g>&#10;	</g>&#10;</g><g
         id="Character">&#10;	<g
   id="g156">&#10;		<g
   id="g103">&#10;			<g
   id="g102">&#10;				<path
   style="fill:#59b5d5;fill-opacity:1"
   d="m 336.581,399.76 c -9.365,11.118 -20.361,20.86 -32.843,28.349 -3.909,2.338 -7.903,4.421 -11.995,6.259 -28.41,12.774 -60.791,13.602 -91.076,6.259 C 137.001,425.199 103.22,369 98.934,306.614 c -1.157,-16.866 -3.738,-35.072 3.093,-51.11 6.771,-15.904 20.641,-25.987 36.265,-32.928 11.337,-5.042 23.588,-8.439 34.718,-11.203 20.264,-5.029 41.27,-2.728 60.084,6.198 13.091,6.211 22.419,16.964 33.428,26.085 1.169,0.962 2.338,1.924 3.519,2.874 11.118,8.951 22.833,17.183 35.023,24.611 18.51,11.289 37.458,21.944 49.283,40.905 18.852,30.212 2.936,63.116 -17.766,87.714 z"
   id="path97" />&#10;				<path
   style="opacity:0.4;fill:#ffffff"
   d="m 336.80595,399.22794 c -9.365,11.118 -20.361,20.86 -32.843,28.349 -3.909,2.338 -7.903,4.421 -11.995,6.259 -28.41,12.774 -60.791,13.602 -91.076,6.259 -63.666,-15.428 -97.447,-71.627 -101.733002,-134.013 -1.157,-16.866 -3.738,-35.072 3.093002,-51.11 6.771,-15.904 20.641,-25.987 36.265,-32.928 11.337,-5.042 23.588,-8.439 34.718,-11.203 20.264,-5.029 41.27,-2.728 60.084,6.198 13.091,6.211 22.419,16.964 33.428,26.085 1.169,0.962 2.338,1.924 3.519,2.874 11.118,8.951 22.833,17.183 35.023,24.611 18.51,11.289 37.458,21.944 49.283,40.905 18.852,30.212 2.936,63.116 -17.766,87.714 z"
   id="path98" />&#10;				<path
   style="fill:none;stroke:#263238;stroke-miterlimit:10"
   d="m 270.042,246.526 c -1.18,-0.949 -2.353,-1.907 -3.519,-2.873 -11.012,-9.117 -20.34,-19.872 -33.427,-26.082 -18.816,-8.929 -39.828,-11.225 -60.086,-6.197 -26.467,6.569 -59.301,16.683 -70.984,44.132 -6.827,16.04 -4.248,34.242 -3.089,51.104 4.288,62.39 38.06,118.59 101.728,134.021 34.647,8.397 72.022,6.1 103.077,-12.523 12.475,-7.481 23.478,-17.234 32.833,-28.348 20.703,-24.597 36.628,-57.504 17.778,-87.716 -11.827,-18.957 -30.774,-29.611 -49.29,-40.9 -12.192,-7.434 -23.897,-15.665 -35.021,-24.618 z"
   id="path99" />&#10;				<path
   style="fill:none;stroke:#263238;stroke-linecap:round;stroke-linejoin:round;stroke-miterlimit:10"
   d="m 173.551,357.78 c -5.252,1.622 -10.544,3.651 -15.367,6.181"
   id="path100" />&#10;				<path
   style="fill:none;stroke:#263238;stroke-linecap:round;stroke-linejoin:round;stroke-miterlimit:10"
   d="m 206.041,351.604 c 0,0 -10.411,0.711 -23.055,3.643"
   id="path101" />&#10;				<path
   style="fill:none;stroke:#263238;stroke-linecap:round;stroke-linejoin:round;stroke-miterlimit:10"
   d="m 199.251,349.997 c 0,0 -29.883,-17.381 -65.945,-3.45"
   id="path102" />&#10;			</g>&#10;			<path
   style="opacity:0.1"
   d="m 336.581,399.76 c -9.365,11.118 -20.361,20.86 -32.843,28.349 -3.909,2.338 -7.903,4.421 -11.995,6.259 -3.251,-0.999 -6.442,-2.155 -9.572,-3.507 -18.656,-8.013 -34.317,-21.53 -49.624,-34.877 -9.231,-8.037 -18.607,-16.196 -29.653,-21.469 -14.759,-7.051 -32.137,-8.476 -47.846,-3.933 8.11,-9.219 19.509,-15.49 31.638,-17.414 -7.891,-7.185 -18.887,-10.205 -29.567,-10.4 -10.68,-0.207 -16.562,1.12 -26.986,3.458 3.483,-6.418 12.75,-12.226 20.057,-12.056 -7.307,-0.171 -15.648,-0.658 -20.775,-1.473 -9.438,-1.522 -13.651,-12.616 -15.064,-22.054 -3.897,-25.987 0.049,-53.691 14.236,-75.794 2.971,-4.628 6.211,-8.695 9.706,-12.275 11.337,-5.042 23.588,-8.439 34.718,-11.203 20.264,-5.029 41.27,-2.728 60.084,6.198 13.091,6.211 22.419,16.964 33.428,26.085 1.169,0.962 2.338,1.924 3.519,2.874 11.118,8.951 22.833,17.183 35.023,24.611 18.51,11.289 37.458,21.944 49.283,40.905 18.851,30.214 2.935,63.118 -17.767,87.716 z"
   id="path103" />&#10;		</g>&#10;		<path
   style="fill:#ffffff"
   d="m 346.961,399.023 c 0,0 8.402,7.072 17.564,12.945 11.893,0.799 6.56,15.176 6.56,15.176 l -10.18,6.543 c 0,0 -17.388,-13.82 -26.878,-18.31 -9.49,-4.49 12.934,-16.354 12.934,-16.354 z"
   id="path104" />&#10;		<g
   id="g155">&#10;			<path
   style="opacity:0.3"
   d="m 262.51,247.703 c 0,0 -1.633,-16.132 -4.229,-20.665 L 218.8,218.97 v -3.056 c 0,0 0.911,-5.324 -7.89,-8.653 -8.801,-3.329 -27.135,0.999 -31.865,4.577 -4.73,3.578 -2.997,9.739 -2.997,9.739 0,0 -15.908,8.06 -23.062,11.126 -7.154,3.065 -17.079,9 -17.079,9 0,0 -3.233,37.072 -2.6,45.682 0.633,8.61 -0.514,16.711 0.221,21.482 0.736,4.772 1.32,7.483 6.326,11.542 5.006,4.059 9.542,10.05 22.658,4.107 l -1.829,-1.447 86.341,-29.031 z"
   id="path105" />&#10;			<path
   style="fill:#bb92e3;fill-opacity:1"
   d="m 262.51,247.703 c 0,0 -1.633,-16.132 -4.229,-20.665 L 218.8,218.97 v -3.056 c 0,0 0.911,-5.324 -7.89,-8.653 -8.801,-3.329 -27.135,0.999 -31.865,4.577 -4.73,3.578 -2.997,9.739 -2.997,9.739 0,0 -15.908,8.06 -23.062,11.126 -7.154,3.065 -17.079,9 -17.079,9 0,0 -3.233,37.072 -2.6,45.682 0.633,8.61 -0.514,16.711 0.221,21.482 0.736,4.772 1.32,7.483 6.326,11.542 5.006,4.059 9.542,10.05 22.658,4.107 l -1.829,-1.447 86.341,-29.031 z"
   id="path106" />&#10;			<path
   style="opacity:0.05"
   d="m 262.862,246.452 c 0,0 -1.633,-16.132 -4.229,-20.665 l -39.481,-8.068 v -3.056 c 0,0 0.911,-5.324 -7.89,-8.653 -8.801,-3.329 -27.135,0.999 -31.865,4.577 -4.73,3.578 -2.997,9.739 -2.997,9.739 0,0 -15.908,8.06 -23.062,11.126 -7.154,3.065 -17.079,9 -17.079,9 0,0 -3.233,37.072 -2.6,45.682 0.633,8.61 -0.514,16.711 0.221,21.482 0.736,4.772 1.32,7.483 6.326,11.542 5.006,4.059 9.542,10.05 22.658,4.107 l -1.829,-1.447 86.341,-29.031 z"
   id="path107" />&#10;			<path
   style="opacity:0.1"
   d="m 258.8,228.985 h -16.517 c -3.209,0 -5.947,2.321 -6.473,5.486 l -8.142,49.035 c 0,0 -11.207,0.932 -19.147,6.728 -7.939,5.796 -27.469,-35.521 -58.334,-35.541 0,0 8.881,20.296 10.852,36.496 0,0 -19.291,-2.099 -22.494,5.449 -3.204,7.548 1.456,21.7 9.611,16.225 8.155,-5.474 15.797,-14.638 21.296,-8.891 5.499,5.747 29.798,8.891 29.798,8.891 l 37.471,-18.824 14.533,-6.831 z"
   id="path108" />&#10;			<path
   style="opacity:0.4;fill:#ffffff"
   d="m 206.349,204.712 c 0,0 9.383,2.603 10.902,5.748 1.519,3.145 1.363,11.119 1.363,11.119 0,0 -2.556,7.081 -10.092,13.881 l -7.004,-13.881 0.627,15.746 c 0,0 -13.278,-2.21 -18.913,-6.458 -5.635,-4.247 -5.635,-4.247 -5.635,-4.247 0,0 -2.425,-7.972 -2.081,-10.705 0.344,-2.734 10.507,-8.217 10.507,-8.217 z"
   id="path109" />&#10;			<path
   style="fill:#b28bd8;fill-opacity:1"
   d="m 362.587,447.423 c -0.257,-0.577 3.853,-7.83 0.635,-15.224 -3.218,-7.395 -8.35,-4.544 -8.35,-4.544 0,0 -14.61,-9.297 -20.751,-12.233 -6.141,-2.937 -12.749,-7.58 -12.749,-7.58 l -6.487,8.737 5.996,18.563 z"
   id="path110" />&#10;			<path
   style="fill:#b28bd8;fill-opacity:1"
   d="m 354.336,427.206 18.763,11.466 c 0,0 13.186,-8.463 19.482,-14.305 6.296,-5.842 20.369,-18.273 20.369,-18.273 l 8.985,-12.114 c 0,0 -6.245,-7.72 -16.644,-1.515 -13.44,8.019 -29.829,19.614 -40.766,19.503 0,0 2.157,13.431 -10.189,15.238"
   id="path111" />&#10;			<path
   style="fill:#ffffff"
   d="m 203.168,156.226 c 0,0 8.515,12.879 10.064,17.05 1.549,4.171 2.799,10.344 2.484,13.31 -0.315,2.966 -3.422,18.879 -5.03,19.344 l -1.51,1.707 0.968,6.74 c 0,0 -6.66,11.517 -26.242,3.075 0,0 -0.764,-13.447 -3.144,-17.664 -2.38,-4.217 -5.942,0.8 -9.505,-11.39 -3.563,-12.19 7.798,-24.947 7.798,-24.947 z"
   id="path112" />&#10;			<path
   style="opacity:0.5;fill:#ffffff"
   d="m 413.825,390.223 c 0,0 -9.64,1.673 -12.774,7.383 -3.133,5.71 -9.138,16.325 -11.189,21.457 -2.052,5.131 -19.016,17.522 -19.016,17.522 l 2.253,2.088 c 0,0 13.804,-8.534 22.128,-16.643 8.325,-8.109 26.704,-28.509 26.704,-28.509 0,0 -1.312,-1.313 -8.106,-3.298 z"
   id="path113" />&#10;			<path
   style="opacity:0.5;fill:#ffffff"
   d="m 317.265,413.374 -2.38,3.206 7.336,15.222 40.367,14.51 1.872,-5.914 c 0,0 0.624,-6.02 -13.546,-10.555 -14.169,-4.535 -22.809,-7.568 -26.839,-10.704 -4.031,-3.137 -6.81,-5.765 -6.81,-5.765 z"
   id="path114" />&#10;			<path
   style="fill:#ffffff"
   d="m 183.995,300.326 c 0,0 -12.361,-1.855 -18.132,8.255 -5.771,10.111 -5.181,14.488 -5.181,14.488 0,0 8.165,7.421 19.394,7.041 11.229,-0.38 27.597,-13.322 32.926,-17.509 5.329,-4.187 18.771,-16.178 27.942,-13.703 l 1.011,-8.671 c 0,0 -0.891,-3.887 -8.737,-2.842 -7.845,1.045 -10.921,5.523 -13.444,5.523 -2.523,0 -4.92,-2.434 -10.034,6.251 0.001,0.001 -17.83,3.165 -25.745,1.167 z"
   id="path115" />&#10;			<path
   style="fill:none;stroke:#263238;stroke-linecap:round;stroke-linejoin:round;stroke-miterlimit:10"
   d="m 200.064,174.753 c 0.257,1.62 0.632,3.221 1.12,4.786 0.236,0.756 0.512,1.526 1.046,2.111 0.945,1.035 2.459,1.264 3.845,1.474 0.228,0.035 0.477,0.082 0.625,0.259 0.134,0.161 0.148,0.388 0.148,0.598 -0.003,1.563 -0.481,3.122 -1.355,4.417"
   id="path116" />&#10;			<path
   style="opacity:0.1"
   d="m 325.563,403.041 -8.298,10.333 c 0,0 9.104,8.407 18.527,11.523 9.423,3.116 25.907,9.023 28.667,13.536 L 363.398,433 c 0,0 -25.785,-15.82 -31.712,-19.596 -5.926,-3.776 -6.123,-10.363 -6.123,-10.363 z"
   id="path117" />&#10;			<path
   style="opacity:0.1"
   d="m 354.336,427.206 16.51,9.379 c 0,0 8.129,-5.558 12.148,-9.698 4.02,-4.14 8.923,-8.662 11.954,-17.876 4.189,-12.734 16.192,-18.788 16.192,-18.788 0,0 -16.691,7.855 -25.38,14.026 -8.689,6.172 -17.158,8.736 -22.076,8.318 0,10e-4 3.95,12.506 -9.348,14.639 z"
   id="path118" />&#10;			<path
   style="fill:#ffffff;stroke:#263238;stroke-linecap:round;stroke-linejoin:round;stroke-miterlimit:10"
   d="m 194.237,190.669 c 0,0 6.489,5.089 13.233,3.181 0,0 -6.362,12.596 -13.233,-3.181 z"
   id="path119" />&#10;			<path
   style="fill:#263238"
   d="m 194.038,179.668 c 0.188,1.401 -0.234,2.614 -0.941,2.709 -0.707,0.094 -1.432,-0.965 -1.62,-2.366 -0.188,-1.401 0.234,-2.614 0.941,-2.709 0.707,-0.095 1.433,0.965 1.62,2.366 z"
   id="path120" />&#10;			<path
   style="fill:#263238"
   d="m 208.127,177.125 c 0.188,1.401 -0.233,2.614 -0.941,2.709 -0.707,0.095 -1.432,-0.965 -1.62,-2.366 -0.188,-1.401 0.234,-2.614 0.941,-2.709 0.708,-0.095 1.433,0.964 1.62,2.366 z"
   id="path121" />&#10;			<path
   style="fill:none;stroke:#263238;stroke-linecap:round;stroke-linejoin:round;stroke-miterlimit:10"
   d="m 193.014,173.731 c 0,0 -3.783,-1.949 -6.475,2.228"
   id="path122" />&#10;			<path
   style="fill:none;stroke:#263238;stroke-linecap:round;stroke-linejoin:round;stroke-miterlimit:10"
   d="m 202.69,171.132 c 0,0 3.991,-3.434 6.312,0"
   id="path123" />&#10;			<path
   style="fill:none;stroke:#263238;stroke-linecap:round;stroke-linejoin:round;stroke-miterlimit:10"
   d="m 180.161,186.599 c 0,0 -2.433,-3.592 -4.982,-3.476 -2.549,0.116 -3.592,3.708 -2.665,7.184 0.927,3.476 4.751,8.343 7.647,7.879 2.897,-0.464 4.171,-2.318 4.171,-2.318"
   id="path124" />&#10;			<path
   style="fill:none;stroke:#263238;stroke-linecap:round;stroke-linejoin:round;stroke-miterlimit:10"
   d="m 203.456,159.134 c 2.735,2.263 5.621,4.741 7.051,8.077 1.218,2.84 1.495,5.983 2.611,8.866 1.189,3.072 2.497,6.286 2.595,9.636 0.09,3.05 -0.603,6.22 -1.21,9.189 -0.525,2.57 -0.931,5.22 -1.854,7.685 -1.344,3.59 -3.839,5.798 -7.181,7.504 -2.431,1.241 -6.48,3.022 -9.106,1.342 -1.531,-0.98 -3.827,-3.858 -5.741,-6.491"
   id="path125" />&#10;			<path
   style="fill:none;stroke:#263238;stroke-linecap:round;stroke-linejoin:round;stroke-miterlimit:10"
   d="m 180.161,198.186 c 0,0 4.298,10.542 3.255,17.958"
   id="path126" />&#10;			<path
   style="fill:#263238"
   d="m 179.057,184.828 c 1.15,-0.832 1.808,-2.297 1.667,-3.708 -0.162,-1.622 -1.287,-3.119 -1.063,-4.734 0.11,-0.792 0.536,-1.498 0.859,-2.229 1.184,-2.67 0.985,-5.91 -0.517,-8.414 0,0 13.658,0.639 20.06,-3.433 6.403,-4.071 11.274,-14.476 7.406,-19.452 -3.868,-4.976 -11.408,1.81 -16.987,2.563 -5.579,0.754 -25.483,3.921 -28.65,11.611 -3.167,7.69 1.659,10.411 1.809,17.721 0.151,7.31 0.143,21.156 11.079,19.888 0,0 -4.089,-5.29 -1.251,-10.743 1.935,-2.322 5.588,0.93 5.588,0.93 z"
   id="path127" />&#10;			<path
   style="fill:#263238"
   d="m 205.846,151.499 c 0,0 5.623,3.752 6.541,12.008 0.609,5.482 10.335,16.13 3.326,22.204 0,0 -1.635,-6.454 -2.595,-9.636 -0.96,-3.181 -2.184,-8.985 -3.796,-11.013 -1.613,-2.028 -10.154,-8.96 -10.154,-8.96 z"
   id="path128" />&#10;			<path
   style="fill:none;stroke:#263238;stroke-linecap:round;stroke-linejoin:round;stroke-miterlimit:10"
   d="m 181.423,215.914 c 0,0 6.74,4.433 19.259,4.619 l 1.463,16.791 c 0,0 -14.071,-1.075 -24.548,-10.705 0,0 -2.828,-7.489 -2.081,-10.705 0.746,-3.216 7.453,-6.412 7.453,-6.412"
   id="path129" />&#10;			<path
   style="fill:none;stroke:#263238;stroke-linecap:round;stroke-linejoin:round;stroke-miterlimit:10"
   d="m 209.741,208.401 0.403,5.977 c -4.55,4.664 -9.462,6.157 -9.462,6.157 l 7.84,14.925 c 0,0 9.344,-7.276 10.277,-14.925 0,0 0.077,-7.836 -1.547,-10.074 -1.624,-2.239 -7.57,-3.294 -7.57,-3.294"
   id="path130" />&#10;			<path
   style="opacity:0.8;fill:none;stroke:#ffffff;stroke-linecap:round;stroke-linejoin:round;stroke-miterlimit:10"
   d="m 171.802,161.995 c 1.014,-2.513 3.736,-3.956 6.408,-4.405 2.672,-0.45 5.406,-0.116 8.115,-0.188 3.712,-0.097 7.458,-0.992 10.596,-2.978 3.138,-1.986 5.618,-5.13 6.404,-8.759"
   id="path131" />&#10;			<path
   style="opacity:0.8;fill:none;stroke:#ffffff;stroke-linecap:round;stroke-linejoin:round;stroke-miterlimit:10"
   d="m 165.347,161.512 c 1.696,-5.135 7.174,-8.3 12.563,-8.757 2.669,-0.227 5.368,0.088 8.028,-0.225 2.66,-0.313 5.429,-1.411 6.819,-3.701"
   id="path132" />&#10;			<path
   style="fill:none;stroke:#263238;stroke-linecap:round;stroke-linejoin:round;stroke-miterlimit:10"
   d="m 162.511,324.517 c -12.979,6.74 -17.62,-0.193 -24.858,-5.934 -7.239,-5.741 -2.496,-15.975 -3.994,-32.449 -1.498,-16.474 2.246,-44.43 2.246,-44.43 0,0 3.245,-0.749 12.231,-6.245 8.986,-5.496 27.911,-13.881 27.911,-13.881"
   id="path133" />&#10;			<path
   style="fill:none;stroke:#263238;stroke-linecap:round;stroke-linejoin:round;stroke-miterlimit:10"
   d="m 175.391,299.624 c 0,0 -2.062,-6.53 -7.886,-6.707 -5.824,-0.176 -14.999,2.451 -21.533,14.826"
   id="path134" />&#10;			<path
   style="fill:none;stroke:#263238;stroke-linecap:round;stroke-linejoin:round;stroke-miterlimit:10"
   d="m 166.179,292.529 c -0.362,0.006 -0.71,-0.127 -1.05,-0.25 -4.759,-1.724 -10.045,-1.963 -14.941,-0.675"
   id="path135" />&#10;			<path
   style="fill:none;stroke:#263238;stroke-linecap:round;stroke-linejoin:round;stroke-miterlimit:10"
   d="m 146.844,250.63 c 10.581,11.699 15.745,27.179 20.636,42.176"
   id="path136" />&#10;			<path
   style="fill:none;stroke:#263238;stroke-linecap:round;stroke-linejoin:round;stroke-miterlimit:10"
   d="m 218.8,218.97 c 0,0 19.203,4.579 28.579,5.669 9.376,1.09 10.902,2.398 10.902,2.398 l 1.744,6.542"
   id="path137" />&#10;			<polygon
   style="fill:#ffffff"
   points="305.519,287.426 312.663,231.994 308.275,230.376 242.882,232.891 237.539,300.143 248.742,300.143 "
   id="polygon137" />&#10;			<g
   id="g139">&#10;				<polygon
   style="fill:#92e3a9"
   points="312.458,233.579 305.519,287.426 240.944,302.135 "
   id="polygon138" />&#10;				<polygon
   style="opacity:0.7;fill:#ffffff"
   points="312.458,233.579 305.519,287.426 240.944,302.135 "
   id="polygon139" />&#10;			</g>&#10;			<polygon
   style="fill:none;stroke:#263238;stroke-linecap:round;stroke-linejoin:round;stroke-miterlimit:10"
   points="240.944,300.326 246.659,235.459 312.663,231.994 305.519,287.426 "
   id="polygon140" />&#10;			<path
   style="fill:#263238"
   d="m 284.841,263.416 c -0.446,3.95 -2.556,6.954 -4.712,6.71 -2.156,-0.244 -3.542,-3.643 -3.096,-7.592 0.446,-3.95 2.556,-6.954 4.712,-6.71 2.156,0.244 3.543,3.643 3.096,7.592 z"
   id="path140" />&#10;			<path
   style="fill:#263238"
   d="m 305.519,287.426 c 0,0 30.22,-0.859 39.672,5.38 9.453,6.239 14.994,37.531 13.69,54.154 -1.304,16.624 -12.712,54.76 -12.712,54.76 L 324.33,376.948 c 0,0 -10.756,-39.114 -4.889,-54.434 0,0 -29.01,1.63 -40.418,-1.956 0,0 -10.232,-16.747 -27.769,-22.292 z"
   id="path141" />&#10;			<path
   style="fill:none;stroke:#263238;stroke-miterlimit:10"
   d="m 350.78,402.366 c -9.229,-8.358 -18.133,-19.862 -20.775,-23.953 -10.57,-16.33 -25.183,-32.039 -40.21,-44.229 -12.117,-9.827 -14.857,-25.829 -29.799,-33.854 -24.745,-13.274 -46.141,13.103 -54.142,18.437 -8.001,5.334 -21.859,11.35 -21.859,11.35 0,0 5.054,18.961 19.91,21.25 14.857,2.289 29.896,-8.001 37.044,-3.044 7.148,4.944 12.372,27.046 35.851,40.003 19.192,10.582 45.337,20.909 58.83,27.862 3.02,1.559 5.241,3.201 6.941,4.128 4.66,2.541 9.64,5.538 14.337,8.495 l 16.19,9.861 c 0,0 16.247,-9.61 22.487,-18.472 0.839,-1.191 2.563,-4.363 4.183,-7.424 3.535,-6.682 7.981,-12.683 14.191,-16.02 4.284,-2.302 8.095,-3.009 7.973,-3.236 -0.413,-0.763 -8.168,-4.729 -13.443,-2.558 -11.159,4.604 -33.465,22.317 -43.963,21.006 -0.001,0 -7.649,-4.079 -13.746,-9.602 z"
   id="path142" />&#10;			<path
   style="fill:#263238"
   d="m 350.78,402.366 c -9.73,3.933 -13.651,9.986 -15.149,13.822 -13.493,-6.953 -39.638,-17.28 -58.83,-27.862 -23.478,-12.957 -28.703,-35.059 -35.851,-40.003 -7.148,-4.956 -22.188,5.334 -37.044,3.044 C 189.048,349.077 184,330.111 184,330.111 c 0,0 13.857,-6.007 21.858,-11.341 8.001,-5.334 26.448,-31.719 54.137,-18.441 15.295,7.335 17.682,24.027 29.799,33.854 15.027,12.19 29.64,27.899 40.21,44.229 2.643,4.093 11.521,15.625 20.776,23.954 z"
   id="path143" />&#10;			<path
   style="fill:none;stroke:#ffffff;stroke-linecap:round;stroke-linejoin:round;stroke-miterlimit:10"
   d="m 277.662,317.593 c 0,0 -7.489,-15.222 -19.504,-18.175"
   id="path144" />&#10;			<path
   style="fill:none;stroke:#263238;stroke-linecap:round;stroke-linejoin:round;stroke-miterlimit:10"
   d="m 238.404,287.289 c -8.263,-1.803 -17.334,7.329 -21.152,5.62 -2.841,-1.271 -7.511,6.251 -7.511,6.251 0,0 -12.094,1.868 -23.222,1.166 -11.128,-0.702 -16.403,1.459 -20.34,7.417 l -5.497,14.562 c 0,0 14.503,13.016 30.004,5.433 15.5,-7.584 36.078,-30.403 50.258,-30.324"
   id="path145" />&#10;			<path
   style="fill:none;stroke:#263238;stroke-miterlimit:10"
   d="m 353.706,426.817 c 0,0 13.569,1.115 10.383,-15.088"
   id="path146" />&#10;			<path
   style="fill:#263238"
   d="m 417.612,401.72 c -1.028,2.042 -13.436,12.58 -24.146,21.83 0.032,-0.144 2.962,-5.789 4.248,-8.199 2.842,-5.322 10.202,-19.913 24.218,-21.831 1.988,1.197 -4.32,8.2 -4.32,8.2 z"
   id="path147" />&#10;			<path
   style="fill:none;stroke:#263238;stroke-miterlimit:10"
   d="m 412.279,390.326 c -14.168,2.829 -17.385,20.981 -22.417,28.737 -5.032,7.756 -19.016,18.237 -19.016,18.237"
   id="path148" />&#10;			<path
   style="fill:none;stroke:#263238;stroke-miterlimit:10"
   d="m 363.222,432.656 c 2.303,4.225 1.214,9.122 0,12.19 -1.019,2.581 -2.223,4.37 -2.223,4.37 C 340.94,445.92 320.88,435.142 320.88,435.142 l -5.172,-16.004 -0.824,-2.559 7.785,-10.485"
   id="path149" />&#10;			<path
   style="fill:#263238"
   d="m 363.222,444.847 c -1.019,2.581 -2.223,4.37 -2.223,4.37 -20.059,-3.296 -40.119,-14.074 -40.119,-14.074 l -5.172,-16.004 c 2.591,3.383 7.395,8.327 14.594,10.366 9.771,2.764 27.803,6.006 32.92,15.342 z"
   id="path150" />&#10;			<polyline
   style="fill:none;stroke:#263238;stroke-linecap:round;stroke-linejoin:round;stroke-miterlimit:10"
   points="     237.539,297.803 242.882,232.891 308.275,230.376 312.663,231.994    "
   id="polyline150" />&#10;			<path
   style="fill:none;stroke:#263238;stroke-miterlimit:10"
   d="m 363.949,419.063 c 0,0 8.944,1.595 15.81,-4.01 6.865,-5.605 17.941,-18.269 17.941,-18.269"
   id="path151" />&#10;			<path
   style="fill:none;stroke:#263238;stroke-linecap:round;stroke-linejoin:round;stroke-miterlimit:10"
   d="m 373.099,410.976 c 0,0 -2.156,3.251 0,9.778"
   id="path152" />&#10;			<path
   style="fill:none;stroke:#263238;stroke-linecap:round;stroke-linejoin:round;stroke-miterlimit:10"
   d="m 379.439,407.889 c 0,0 -1.729,4.861 0.808,9.775"
   id="path153" />&#10;			<path
   style="fill:none;stroke:#263238;stroke-linecap:round;stroke-linejoin:round;stroke-miterlimit:10"
   d="m 386.993,403.508 c 0,0 -1.811,5.433 0,10.225"
   id="path154" />&#10;			<path
   style="fill:none;stroke:#263238;stroke-miterlimit:10"
   d="m 324.442,404.742 -7.177,8.632 c 0,0 7.23,7.886 17.411,11.165 10.181,3.279 28.397,8.85 29.902,14.779"
   id="path155" />&#10;		</g>&#10;	</g>&#10;</g></g></g></svg>
